<?xml version="1.0" encoding="UTF-8"?>
<svg xmlns="http://www.w3.org/2000/svg" version="1.1" viewBox="0 0 757 91">
  <!-- Generator: Adobe Illustrator 29.7.1, SVG Export Plug-In . SVG Version: 2.1.1 Build 8)  -->
  <defs>
    <style>
      .st0 {
        isolation: isolate;
      }

      .st1 {
        fill-rule: evenodd;
      }
    </style>
  </defs>
  <g id="New_UCB_Library_Logo_1" class="st0">
    <g id="New_UCB_Library_Logo_11" data-name="New_UCB_Library_Logo_1">
      <path class="st1" d="M216.65,27.43c-6.34,3.7-9.32,9.53-10.71,18.24-.41,2.58.11,5.6.57,7.55,2.14,9.1,7.36,14.05,17.2,15.59,6.82,1.06,12.2-2.68,15.49-5.3.96-.76,3.51-2.65,2.76-4.42-.41-1.08-1.77-1.14-2.76-.56-2.93,1.7-6.87,4.29-12.01,3.37-7.6-1.35-12.31-7.31-12.17-16.23,2.68-.43,5.35-.86,8.03-1.29,4.35-.92,8.62-1.48,12.74-2.49,1.87-.46,5.46-.52,6.41-1.93.93-1.38-.91-5.17-1.46-6.11-4.06-6.88-14.69-11.91-24.09-6.43ZM232.55,37.55c-1.14.78-2.82.89-4.38,1.29-4.04,1.02-8.47,2.05-12.82,2.57.14-4.59,2.61-8.97,5.68-10.77.92-.54,1.97-.52,3.08-.96,4.29-.06,9.69,3.71,8.44,7.87ZM320.73,63.99c-.65-.46-1.3-.91-1.95-1.37-2.96-2.91-5.11-6.69-7.54-10.12-1.89-2.79-3.79-5.57-5.68-8.36,1.32-1.18,2.65-2.36,3.98-3.54,3.1-2.47,6.03-5.43,8.52-8.52.72-.89,3.69-3.43,2.76-5.14-.49-1.05-2.28-1.04-3.81-.8-3.37.52-11.28-.88-12.98.88-.83,3.98,4.73,2,5.52,4.66.58,1.96-2.17,4.63-3,5.46-4.16,4.16-8.73,7.99-13.95,11.09.03-10.53.05-21.05.08-31.58,0-2.95.75-10.91-.16-12.86-.36-.12-.81-.18-1.38-.16-3.16,1.63-12.56,1.17-14.6,3.21v1.37c.94,2.17,5.56.87,6.41,3.13.05,1.42.11,2.84.16,4.26.05,3.72.11,7.45.16,11.17-.05,11.78-.11,23.57-.16,35.36-.57,3.08-7.57,1.21-6.49,4.82.46,1.56,2.84,1.16,4.79,1.12,4.01-.06,8.52-.62,12.49,0,1.59.25,4.38.28,5.03-.56,2.65-3.43-5.2-3.09-6-4.5-.61-1.07-.23-7.67-.24-9.56,1.81-1.18,3.62-2.36,5.44-3.54.05-.05.11-.11.16-.16,3.06,4.45,6.11,8.89,9.17,13.34,1.14,1.61,2.2,4.47,4.46,4.9,2.02.38,12.01.12,12.57-.64,2.06-2.79-2.35-2.81-3.73-3.37ZM279.2,28.15c-.46-1.5-5.82-3.88-8.6-3.37-4.39.8-7,4.65-9.17,7.71-.49.75-.97,1.5-1.46,2.25v-9.72c-.16-.19-.32-.38-.49-.56-.27-.03-.54-.05-.81-.08-2.69,1.29-6.56,1.43-9.73,2.01-1.93.35-4.04-.04-5.03,1.21-.89,3.6,3.69,2.47,5.6,3.78,1.28.88.69,3.68.97,5.54v16.71c-.08,3.03-.16,6.05-.24,9.08-.87,2.81-7.43,0-5.92,4.82,1.29.87,3.47.52,5.52.48,3.89-.06,8.14-.49,11.92.08,1.94.29,4.92.31,5.44-.96,1.51-3.74-6.2-2.2-7.06-4.34-.67-1.67-.32-7.58-.32-9.88v-13.18c.62-1.68,5.56-6.42,7.46-6.99,3.97-1.18,6.05,3.88,8.11,3.13.63-.23,4.17-6.55,3.81-7.71ZM72.09,7.02c-1.68.05-3.35.11-5.03.16-3.21.47-8.33.3-11.36-.16-1.95-.3-4.27-.09-4.62,1.29-1.08,4.15,7.41,1.82,8.19,5.06.05,5.7.11,11.41.16,17.12.03,2.68.05,5.36.08,8.04,0,11.99-1.95,19.5-10.87,22.58-1.85.64-4.78,1.37-7.46.96-1.51-.24-3.03-.48-4.54-.72-12.51-3.76-10.87-17.12-10.87-32.94.05-4.02.11-8.04.16-12.05.17-1.11-.22-2.5.16-3.37,1.17-2.66,7.47-.49,7.87-3.86.27-2.31-2.87-2.44-5.19-2.09-6.39.96-13.48-.03-20.04,0-.86.47-1.46.59-1.46,1.93,0,3.62,6.85,1.34,7.87,4.18.05,2.38.11,4.77.16,7.15.03,4.98.05,9.96.08,14.95,0,4.74-.48,10.13.32,14.38,1.64,8.67,5.46,14.48,12.74,17.52,2.42,1.01,5.14,1.45,8.11,1.93,1.05.03,2.11.05,3.16.08,2.71.41,6.27-.23,8.52-.88,3.61-1.05,6.58-2.61,9.17-4.66,9.14-7.22,8.03-20.67,8.03-36.8.03-4.34.05-8.68.08-13.02.68-3.48,5.44-1.37,7.46-3.37,1.08-1.07.44-3.05-.89-3.37ZM544.47,18.91c5.52-1.52,5.01-10.24-2.35-10.04-2.02.91-3.43,1.53-4.06,3.78-1.15,4.11,2.55,7.33,6.41,6.27ZM192.07,36.1c-.92-.37-1.84-.75-2.76-1.12l-.16-.08c6.3-2.52,10.94-13.58,5.84-20.81-4.24-6.02-12.34-7.45-22.88-7.31-.89.05-1.78.11-2.68.16-4.22.65-9.44.23-13.79.08-1.83-.06-5.29-.72-6.17.56-2.48,3.63,6.28,3.51,7.54,5.38,1.22,1.81.16,7.84.57,10.53v23.95c-.03,3.03-.05,6.05-.08,9.08-.05,1.69-.11,3.38-.16,5.06-.8,3.06-4.94,1.42-7.22,2.97-.94.64-.97,2.66,0,3.29,1.01.67,3.32.24,4.87.24,3.98,0,8.22-.59,12.09,0,14.39,2.19,26.25-.48,31.88-8.92,3.11-4.66,3.58-12.03.41-17.03-1.67-2.64-4.42-4.59-7.3-6.03ZM168.14,17.06c.38-2.44-.4-4.24,1.54-5.06,1.3-.55,3.18-.56,4.95-.56,8.72,0,14.03,6.04,11.68,15.35-.66,2.63-2.03,4.28-3,6.35-.68.43-2.66.05-3.89-.16-3.42-.59-7.64-.33-11.44-.32.05-5.2.11-10.39.16-15.59ZM185.74,61.17c-2.99,2.17-8.53,3.37-13.47,2.17-1.4-.34-2.68-.55-3.41-1.53-.99-1.34-.4-3.36-.73-5.46-.05-4.18-.11-8.36-.16-12.53.03-2.14.05-4.29.08-6.43,8.32-.03,16.29.63,19.96,5.22,4.51,5.66,2.76,14.92-2.27,18.56ZM126.77,51.13c-.59,1.47-1.19,2.95-1.78,4.42-2.37,3.97-6.01,6.61-11.11,7.87-13.13,3.26-22.32-5.46-25.72-13.9-6.05-15.05.49-32.08,11.84-36.8,2.64-1.1,6.76-2.36,10.95-1.69,6.38,1.03,10.41,2.7,13.22,7.15.81,1.29,1.93,5.82,4.46,4.82,1.51-.6,1.82-9.63.73-11.25-.9-1.34-2.88-1.97-4.46-2.65-4.89-2.1-10.45-3.26-17.68-3.13-.97.08-1.95.16-2.92.24-2.31.41-4.57.72-6.65,1.37-7.54,2.34-13.85,6.83-17.68,12.86-1.81,2.84-3.21,6.01-4.22,9.64-.78,2.8-1.45,6.92-.89,10.45.39,2.51.33,4.62.97,6.75,3.03,10.06,9.64,17.13,19.63,20.25,3.35,1.05,6.86,1.05,10.95,1.69,1.38-.08,2.76-.16,4.14-.24,6-.96,10.42-2.12,14.68-4.58,1.78-1.03,4.21-1.9,4.95-3.94.45-1.24.54-7.5.08-8.76-.47-1.28-2.56-1.81-3.49-.56ZM393.01,27.75c-6.57,4.06-8.79,9.6-10.22,18.8-.34,2.19.18,4.73.57,6.43,2.12,9.22,7.29,14.28,17.2,15.83,6.45,1.01,12.82-2.61,15.66-5.38,1.24-1.21,3.33-2.48,2.43-4.82-.37-.22-.91-.65-1.62-.48-.89.51-1.78,1.02-2.68,1.53-1.74,1.01-3.82,1.73-6.08,2.17-10.17,1.95-16.46-7.05-16.31-16.15,2.51-.4,5.03-.8,7.54-1.21,4.37-.93,8.68-1.48,12.82-2.49,1.71-.42,5.94-.79,6.73-1.93,1.03-1.47-.91-5.36-1.54-6.43-4.24-7.12-15.3-11.55-24.5-5.87ZM409.4,37.47c-.55.94-2.79.99-3.98,1.29-4.13,1.03-8.71,1.51-12.98,2.65h-.24c.67-4.85,2.47-8.91,6-10.93.83-.48,1.86-.41,2.84-.8,3.97-.07,6.35,1.81,7.71,4.34.36.66,1.48,2.47.65,3.46ZM622.19,26.7c-3.77.94-6.45,4.38-8.44,7.15-.51.75-1.03,1.5-1.54,2.25v.16c-.94-2.42.94-7.49-.16-9.56-.24-.51-.66-.61-1.46-.56-2.23,1.18-5.74,1.36-8.44,1.85-1.39.25-3.07-.07-3.73.88-2.41,2.66,5.37,2.93,6.17,4.1.9,1.33.19,5.89.49,7.87-.03,5.6-.05,11.2-.08,16.79-.28,1.82.39,4.03-.24,5.54-.76,1.83-7.46.99-5.84,4.02.62,1.24,3.4.8,5.11.72,3.72-.17,8.18-.47,11.84.08,1.73.26,3.24-.04,3.97-.8.1-.44.13-1.1-.08-1.45-1.13-2.22-6.76-.18-7.54-2.89-.05-5.46-.11-10.93-.16-16.39v-6.19c.53-1.4,4.96-5.7,6.33-6.51,2.11-1.24,4.67-.65,6.33.56.5.37,1.57,1.96,2.76,1.45.53-.23,2.89-5.01,3.08-5.87.54-2.44-5.74-3.87-8.36-3.21ZM662.5,58.12c-.63-2.65-.8-9.65-.32-12.7v-3.86c.38-2.35.37-5.79-.24-7.79-1.64-5.34-6.22-7.31-13.39-7.23-1.7.65-3.76.47-5.35.96-4.11,1.26-7.67,3.67-9.82,6.91-1.11,1.68-2.47,5.56-.24,7.23,2.41,1.81,5.99.13,6.49-2.25.31-1.49-.49-2.88,0-4.18.43-1.16,1.52-2.2,2.51-2.81.99-.61,2.25-1.04,3.49-1.37,5.41-1.43,8.81,1.08,9.65,5.3-.03,2.73-.05,5.46-.08,8.2-1.62.43-3.25.86-4.87,1.29-6.4,1.92-13.34,3.93-16.55,9-1.19,1.89-1.83,5.28-.97,8.04,1.62,5.23,8.53,7.67,14.68,5.06,2.22-.94,4.07-2.45,5.84-3.86.92-.96,1.84-1.93,2.76-2.89.79,3.24,2.74,7.21,5.76,8.2,1.67.54,6.09-2.58,6.08-4.18-2.4-2.5-4.44-2.88-5.44-7.07ZM639.63,59.65c-1.45-6.28,7.56-9.43,11.84-10.77,1.22-.32,2.43-.64,3.65-.96.03,1.21.05,2.41.08,3.62.11,2.25.22,4.5.32,6.75-2.46,3.3-14.06,9.35-15.9,1.37ZM694.06,26.7c-3.78.94-6.44,4.38-8.44,7.15-.51.75-1.03,1.5-1.54,2.25v.16c-.94-2.42.94-7.51-.16-9.56-.24-.51-.66-.61-1.46-.56-3.22,1.74-8.87.92-12.17,2.57-1.53,4.07,5.29,2.07,6.33,4.58.76,1.83-.04,5.36.24,7.63v16.55c-.3,1.9.5,4.69-.41,6.03-.77,1.13-4.01,1.27-5.35,1.77-.27.38-.74,1.06-.41,1.77.56,1.44,3.28.94,5.11.88,3.77-.12,8.22-.48,11.93.08,1.73.26,3.24-.04,3.98-.8v-1.29c-1.05-2.38-6.84-.32-7.63-3.05-.05-5.46-.11-10.93-.16-16.39v-6.19c.53-1.4,4.96-5.7,6.33-6.51,2.09-1.23,4.69-.66,6.33.56.5.37,1.58,1.96,2.76,1.45.53-.23,2.91-5.06,3.08-5.95.45-2.37-5.74-3.79-8.36-3.13ZM582.35,26.78c-2.44-.58-5.69-.31-7.71.48-2.48.97-4.94,2.67-6.49,4.58-.49.59-.97,1.18-1.46,1.77V13.77c.35-2.27.44-6.48-.08-8.36-.4-.28-.62-.42-1.38-.4-2.92,1.72-8.5,1.45-12.09,2.49-.29.42-.63,1.22-.24,1.85.96,1.92,5.41.77,6.41,2.73.74,1.44.24,9.15.24,11.49v27.88c-.11,4.45-.22,8.89-.32,13.34-.19,1.22-.45,3.48.32,4.02,1.77,1.68,4.91-3.31,5.44-4.34h.16c1.86,1.4,3.65,2.83,6.17,3.62,12.41,3.86,21.37-6.01,23.69-14.87.66-2.51,1.26-6.23.73-9.32-1.53-8.96-4.89-15.11-13.39-17.12ZM572.13,64.07c-2.53-.89-3.72-2.5-5.52-4.02v-22.18c.63-1.9,4.52-4.54,6.49-5.3.95-.21,1.89-.43,2.84-.64,19.53-.17,15.36,38.87-3.81,32.14ZM748.82,28.07c-.51-1.06-2.3-.95-3.89-.8-1.84.08-3.68.16-5.52.24-1.25-.19-5.56-.61-6.49-.16-.6.29-1.03,1.44-.57,2.25.93,1.88,5.17.64,5.76,2.89.45,1.72-1.88,5.89-2.43,7.23-1.96,4.74-3.79,9.45-5.76,14.06-.84,1.96-1.68,3.91-2.51,5.87-.03.05-.05.11-.08.16-.7-1.71-1.41-3.43-2.11-5.14-1.7-4.61-3.41-9.21-5.11-13.82-.87-2.46-1.73-4.93-2.6-7.39-.75-3.88,7.24-1.51,5.84-5.22-.19-.27-.38-.54-.57-.8-1.99-.48-5.51-.25-7.79.08-3.24-.11-6.49-.21-9.73-.32-.65.28-.98.37-1.46.72-.72,3.12,2.33,2.35,4.06,3.46,1.22.78,1.93,2.61,2.51,4.02,4.41,10.87,8.82,21.75,13.22,32.62-.38,3.3-5.79,10.6-8.27,12.05-1.6.94-4.33.77-6,1.77-1.32.78-2.44,3.05-1.3,4.82.86,1.33,3.32,2.07,5.6,1.45,3.31-.9,5.62-3.79,7.38-6.27,3.66-5.15,6.08-11.32,8.76-17.44,3.46-7.88,6.79-15.86,10.22-23.86,1.04-2.41,2.63-7.59,4.54-9,1.07-.79,5.73-.91,4.3-3.46ZM335.09,26.54c-6.58,2.81-10.53,8.81-12.17,16.55-2.45,11.58,3.96,21.15,11.28,24.27,9.05,3.86,20.65-.5,24.26-6.51.69-1.15.12-3.11-1.62-2.73-1,.56-2,1.12-3,1.69-2.81,1.62-7.84,2.94-12.01,1.69-6.19-1.86-10.24-7.79-10.14-15.83,2.38-.37,4.76-.75,7.14-1.12,4.66-.96,9.24-1.57,13.63-2.65,1.89-.47,5.44-.52,6.41-1.93.78-1.14-.12-3.28-.57-4.34-3.05-7.28-12.94-13.47-23.2-9.08ZM349.29,37.31c-.54,1.1-2.76,1.1-4.06,1.45-4.07,1.1-8.8,2.29-13.22,2.65.3-4.62,2.53-8.88,5.68-10.77.92-.55,1.97-.52,3.08-.96,4.06-.07,6.2,1.79,7.71,4.26.42.68,1.42,2.29.81,3.37ZM375.49,62.14c-.03-3.91-.05-7.82-.08-11.73V18.11c.03-4.63.05-9.27.08-13.9-.16-.16-.32-.32-.49-.48-.35-.03-.7-.05-1.05-.08-2.5,1.26-7.23,1.45-10.3,2.01-1.73.31-4.06-.09-4.46,1.53-.73,2.98,5.23,2.17,6.33,3.78.89,1.3.49,7.92.49,10.12v27.48c-.05,4.61-.11,9.21-.16,13.82-.6,2.65-5.03.98-6.33,2.81-.76,1.08-.14,2.6.89,2.89,1.41-.03,2.81-.05,4.22-.08,3.2-.48,9.16-.4,12.25.08,1.52.24,4.36.28,5.03-.48.3-.34.43-.94.32-1.45-.67-3.14-6.15-.76-6.73-4.02ZM546.9,62.62v-27.08c0-2.23.66-8.43-.49-9.32-.32-.03-.65-.05-.97-.08-2.3,1.16-5.77,1.36-8.52,1.85-1.47.26-3.42-.09-3.98,1.04-1.36,2.78,4.75,2.66,6,3.54,1.15.81.55,3.55.81,5.22v17.92c-.05,2.38-.11,4.77-.16,7.15-.72,2.82-7.35.58-5.84,4.66,1.07.63,3.56.66,5.27.4,4.19-.62,10.05.89,13.63-.24.31-.42.73-1.18.32-1.85-1.06-2.13-5.54-.41-6.08-3.21ZM461.89,26.22c-2.11.05-4.22.11-6.33.16-1.81-.27-4.37-.41-5.92.08-2.88,4,6.05,2.44,4.95,7.79-.54,2.61-1.52,5.07-2.43,7.39-1.65,4.21-2.96,8.31-4.71,12.37-.84,1.93-1.68,3.86-2.51,5.79l-.16.08c-1.08-2.7-2.16-5.41-3.24-8.12-1.38-3.8-2.76-7.61-4.14-11.41-.62-1.57-2.88-6.34-2.11-8.28.88-2.2,4.39-1.75,5.76-3.46.59-2.34-1.51-2.89-4.06-2.49-5.32.83-11.24-.06-16.71,0-.52.31-.87.41-1.22.88-.74,2.98,2.27,2.46,3.81,3.62,1.23.92,1.9,3.25,2.51,4.74,4.73,11.78,9.46,23.57,14.2,35.35.1.92-1.43,2.49-1.87,3.13-1.48,2.21-3.15,4.31-5.76,5.38-2.51,1.04-5.39.9-6.9,2.89-2.19,2.88-.15,6.34,2.84,6.91,5.82,1.12,9.64-5.66,11.6-8.76,7.29-11.52,12.5-25.52,17.85-38.81,1.3-3.23,2.2-7.39,4.22-10.04,1.01-1.33,2.86-1.18,4.22-2.17.58-.43.99-1.8.32-2.49-.6-.99-2.8-.61-4.22-.56ZM528.16,51.85c-1.27.89-2,8.42-3.33,10.2-1.22,1.64-3.53,1.03-6.08,1.45-2.03.05-4.06.11-6.08.16-2.17.35-8.47.39-10.46-.08-.95-.22-2.01-.69-2.51-1.37-1.54-2.05-.97-7.29-.97-10.69v-26.68c.32-2.65-.64-9.81.32-11.49,1.24-2.16,7.15-.6,7.71-3.21.43-2.04-2.06-2.32-3.98-2.01-5.76.93-12.28-.03-18.17,0-.56.31-.88.46-1.3.88-.14.57-.21,1.14.08,1.61,1.04,2.1,6.77.34,7.71,3.05.05,4.9.11,9.8.16,14.7-.03,11.22-.05,22.45-.08,33.67-.68,3.36-9.26,1.17-7.95,4.9.64,1.82,8.36.8,10.87.8h25.39c2.05.03,4.11.05,6.17.08,1.35.22,2.94.56,4.3.16.65-.91.34-1.86.57-3.37.19-3.8.38-7.61.57-11.41-.12-.67-.48-1.01-.81-1.45-.61-.15-1.59-.28-2.11.08Z"/>
    </g>
  </g>
</svg>